<svg width="128" height="151" fill="none" xmlns="http://www.w3.org/2000/svg"><path clip-rule="evenodd" d="M59.248 32.671L2.672 89.248a2.292 2.292 0 000 3.243l56.576 56.577a2.294 2.294 0 003.244 0l56.576-56.577a2.292 2.292 0 000-3.243L62.492 32.671a2.296 2.296 0 00-3.244 0z" stroke="#FFCC2A" stroke-width="2.361"/><path d="M68.821.388a1.325 1.325 0 10-1.873 1.873A1.325 1.325 0 0068.821.388m14.674 14.674a1.322 1.322 0 00-1.874 0 1.323 1.323 0 101.874 1.872 1.323 1.323 0 000-1.872m14.673 14.671a1.325 1.325 0 10-1.873 1.874 1.325 1.325 0 001.873-1.874m14.672 14.674a1.325 1.325 0 100 1.873 1.325 1.325 0 000-1.873m14.673 14.673a1.324 1.324 0 10-1.873 1.873 1.324 1.324 0 001.873-1.873M55.71 13.5a1.325 1.325 0 10-1.874 1.873 1.325 1.325 0 001.873-1.873m14.674 14.673a1.325 1.325 0 10-1.874 1.874 1.325 1.325 0 001.874-1.874m14.672 14.672a1.323 1.323 0 10-1.872 1.874 1.323 1.323 0 101.872-1.874m14.673 14.674a1.324 1.324 0 10-1.873 1.872 1.324 1.324 0 001.873-1.872m14.673 14.673a1.324 1.324 0 10-1.873 1.873 1.324 1.324 0 001.873-1.873m-71.804-45.58a1.325 1.325 0 10-1.873 1.873 1.325 1.325 0 001.873-1.873M57.27 41.285a1.325 1.325 0 10-1.873 1.874 1.325 1.325 0 001.874-1.874m14.672 14.672a1.323 1.323 0 10-1.872 1.874 1.323 1.323 0 101.872-1.874M86.616 70.63a1.324 1.324 0 10-1.873 1.873 1.324 1.324 0 001.873-1.872m14.673 14.673a1.324 1.324 0 10-1.873 1.873 1.324 1.324 0 001.873-1.873m-71.804-45.58a1.325 1.325 0 10-1.873 1.873 1.325 1.325 0 001.873-1.873m14.674 14.673a1.325 1.325 0 10-1.874 1.874 1.325 1.325 0 001.874-1.874M58.83 69.07a1.323 1.323 0 10-1.871 1.87 1.323 1.323 0 001.872-1.87m14.673 14.673a1.324 1.324 0 10-1.873 1.872 1.324 1.324 0 001.873-1.872m14.673 14.673a1.325 1.325 0 10-1.873 1.873 1.325 1.325 0 001.873-1.873m-71.804-45.58a1.325 1.325 0 10-1.873 1.873 1.325 1.325 0 001.873-1.873M31.047 67.51a1.325 1.325 0 10-1.874 1.873 1.325 1.325 0 001.874-1.874m14.672 14.672a1.323 1.323 0 10-1.872 1.87 1.323 1.323 0 001.872-1.87m14.673 14.674a1.324 1.324 0 10-1.873 1.872 1.324 1.324 0 001.873-1.872m14.673 14.673a1.325 1.325 0 10-1.873 1.875 1.325 1.325 0 001.873-1.875M3.261 65.948a1.325 1.325 0 10-1.873 1.873 1.325 1.325 0 001.873-1.873m14.674 14.673a1.325 1.325 0 10-1.874 1.874 1.325 1.325 0 001.874-1.874m14.672 14.672a1.325 1.325 0 10-1.874 1.874 1.325 1.325 0 001.874-1.874m14.673 14.674a1.323 1.323 0 10-1.873 1.87 1.323 1.323 0 001.873-1.87m14.673 14.673a1.325 1.325 0 10-1.873 1.875 1.325 1.325 0 001.873-1.875" fill="#2D415E"/></svg>