<svg width="358" height="510" fill="none" xmlns="http://www.w3.org/2000/svg"><path fill-rule="evenodd" clip-rule="evenodd" d="M0 20C0 8.954 8.954 0 20 0h327s-51 152-10 272 0 238 0 238H20c-11.046 0-20-8.954-20-20V20z" fill="#2D415E"/><mask id="mask0_1871_1611" style="mask-type:alpha" maskUnits="userSpaceOnUse" x="0" y="0" width="356" height="510"><path fill-rule="evenodd" clip-rule="evenodd" d="M0 20C0 8.954 8.954 0 20 0h327s-51 152-10 272 0 238 0 238H20c-11.046 0-20-8.954-20-20V20z" fill="#fff"/></mask><g mask="url(#mask0_1871_1611)"><ellipse opacity=".031" cx="81.441" cy="446.5" rx="172.689" ry="172.5" fill="url(#paint0_linear_1871_1611)"/><circle opacity=".031" cx="308.5" cy="357.5" r="239.5" fill="url(#paint1_linear_1871_1611)"/></g><defs><linearGradient id="paint0_linear_1871_1611" x1="-91.248" y1="274" x2="-91.248" y2="619" gradientUnits="userSpaceOnUse"><stop stop-color="#fff"/><stop offset="1" stop-color="#fff" stop-opacity=".01"/></linearGradient><linearGradient id="paint1_linear_1871_1611" x1="69" y1="118" x2="69" y2="597" gradientUnits="userSpaceOnUse"><stop stop-color="#fff"/><stop offset="1" stop-color="#fff" stop-opacity=".01"/></linearGradient></defs></svg>