<svg width="21" height="21" fill="none" xmlns="http://www.w3.org/2000/svg"><path d="M11.47 19.952zm0 .021l-.234.054.235-.054zm0-.01zm0 .014zm.933-.005zm-.002-1.002l-.1.06.1-.06zm0 1l-.1.06.1-.06zm0 .002a1.96 1.96 0 01-.1.056l.1-.056zm-1.928.013z" fill="#000"/><path d="M20.335 10c0-5.522-4.469-10-9.98-10C4.845 0 .377 4.478.377 10s4.469 10 9.98 10l.175-.002v-7.785H8.387V9.71h2.144V7.867c0-2.137 1.302-3.3 3.204-3.3.91 0 1.694.068 1.922.098V6.9h-1.312c-1.035 0-1.235.493-1.235 1.216V9.71h2.475l-.323 2.504H13.11v7.4A10.002 10.002 0 0020.335 10z" fill="#FFCC2A"/><path d="M10.473 19.98zm0 .015z" fill="#000"/></svg>