<svg width="21" height="20" fill="none" xmlns="http://www.w3.org/2000/svg"><path d="M12.79 10c0 1.105-.894 2-1.996 2a1.998 1.998 0 01-1.996-2c0-1.105.894-2 1.996-2 1.102 0 1.996.895 1.996 2z" fill="#fff"/><path fill-rule="evenodd" clip-rule="evenodd" d="M15.539 6.403a1.89 1.89 0 00-.455-.701 1.884 1.884 0 00-.7-.456c-.215-.084-.537-.183-1.13-.21-.642-.03-.835-.036-2.46-.036s-1.817.006-2.46.035c-.593.028-.915.127-1.13.21a1.883 1.883 0 00-.699.457 1.891 1.891 0 00-.455.701c-.084.215-.183.538-.21 1.133-.03.643-.035.835-.035 2.464s.006 1.821.035 2.465c.027.594.126.917.21 1.132.097.265.253.505.455.701.196.203.435.359.7.457.214.083.536.182 1.13.21.642.029.834.035 2.46.035 1.624 0 1.817-.006 2.459-.036.593-.027.915-.126 1.13-.21.53-.205.95-.625 1.155-1.157.083-.215.182-.538.21-1.132.029-.644.035-.836.035-2.465s-.006-1.821-.036-2.464c-.027-.595-.126-.918-.21-1.133zM10.794 13A2.997 2.997 0 017.8 10c0-1.657 1.34-3 2.994-3a2.997 2.997 0 012.994 3c0 1.657-1.34 3-2.994 3zm1.996-6.5a.5.5 0 10.999.001.5.5 0 00-.999-.001z" fill="#2D415E"/><path fill-rule="evenodd" clip-rule="evenodd" d="M.815 10c0-5.522 4.469-10 9.98-10 5.51 0 9.978 4.478 9.978 10s-4.468 10-9.979 10c-5.51 0-9.98-4.478-9.98-10zm15.409 3.761c.141-.365.238-.782.266-1.394.028-.612.034-.808.034-2.367 0-1.56-.006-1.755-.034-2.367-.028-.612-.125-1.029-.266-1.394a2.814 2.814 0 00-.661-1.017 2.809 2.809 0 00-1.015-.663c-.365-.142-.781-.239-1.391-.266-.611-.028-.807-.035-2.363-.035s-1.751.007-2.362.034c-.61.028-1.027.125-1.391.267-.383.145-.73.37-1.015.663a2.814 2.814 0 00-.661 1.017c-.142.365-.239.782-.267 1.394-.028.612-.034.808-.034 2.367 0 1.56.006 1.755.035 2.368.027.61.124 1.028.266 1.393.144.383.37.73.66 1.017.287.292.633.518 1.016.663.364.142.78.239 1.39.267.612.027.807.034 2.363.034s1.752-.007 2.363-.034c.61-.028 1.026-.125 1.39-.267a2.933 2.933 0 001.677-1.68z" fill="#2D415E"/></svg>