<svg width="21" height="20" fill="none" xmlns="http://www.w3.org/2000/svg"><path fill-rule="evenodd" clip-rule="evenodd" d="M.938 10c0-5.522 4.468-10 9.979-10 5.51 0 9.979 4.478 9.979 10s-4.469 10-9.98 10C5.407 20 .939 15.522.939 10zm4.649 5.117h2.43V7.79h-2.43v7.327zM6.802 6.79h-.016c-.816 0-1.343-.563-1.343-1.266 0-.72.544-1.266 1.375-1.266s1.343.547 1.359 1.266c0 .703-.528 1.266-1.375 1.266zm7.548 8.327h2.43v-4.201c0-2.25-1.199-3.298-2.798-3.298-1.289 0-1.867.71-2.19 1.21V7.79h-2.43c.032.687 0 7.327 0 7.327h2.43v-4.092c0-.219.016-.437.08-.594.176-.437.576-.89 1.247-.89.88 0 1.231.671 1.231 1.656v3.92z" fill="#FFCC2A"/></svg>